<svg width="22" height="22" viewBox="0 0 22 22" fill="none" xmlns="http://www.w3.org/2000/svg">
<g id="Icon">
<path id="icon" fill-rule="evenodd" clip-rule="evenodd" d="M13.8397 18.5735C13.7519 19.1703 13.2078 19.6443 12.5583 19.6443H9.31085C8.66137 19.6443 8.1172 19.1703 8.03821 18.5296L7.80124 16.8708C7.56426 16.7479 7.33607 16.6163 7.10787 16.4671L5.52804 17.099C4.91366 17.3272 4.23785 17.0727 3.93944 16.5285L2.33328 13.7463C2.02609 13.167 2.15774 12.4824 2.64924 12.0962L3.9921 11.0518C3.98332 10.9201 3.97454 10.7885 3.97454 10.6481C3.97454 10.5164 3.98332 10.376 3.9921 10.2443L2.65802 9.19987C2.14019 8.80492 2.00853 8.09399 2.33328 7.54983L3.95699 4.75003C4.2554 4.20586 4.93122 3.96011 5.52804 4.19709L7.11665 4.83779C7.34484 4.68859 7.57304 4.55694 7.80124 4.43406L8.03821 2.75769C8.1172 2.14331 8.66137 1.66058 9.30207 1.66058H12.5495C13.199 1.66058 13.7431 2.13453 13.8221 2.77524L14.0591 4.43406C14.2961 4.55694 14.5243 4.68859 14.7525 4.83779L16.3323 4.20586C16.9555 3.97766 17.6313 4.23219 17.9297 4.77636L19.5446 7.56739C19.8606 8.14666 19.7202 8.83125 19.2287 9.21743L17.8946 10.2619C17.9034 10.3935 17.9121 10.5252 17.9121 10.6656C17.9121 10.806 17.9034 10.9377 17.8946 11.0693L19.2287 12.1138C19.7202 12.5087 19.8606 13.1933 19.5534 13.7463L17.9209 16.5724C17.6225 17.1166 16.9467 17.3623 16.3411 17.1253L14.7613 16.4934C14.5331 16.6426 14.3049 16.7743 14.0767 16.8971L13.8397 18.5735ZM9.72336 17.8889H12.1458L12.4705 15.6508L12.9357 15.4577C13.3219 15.2998 13.708 15.0716 14.1118 14.7732L14.5067 14.4747L16.5956 15.3173L17.8068 13.2109L16.0251 11.8241L16.0866 11.3326L16.0893 11.309C16.1147 11.0893 16.1392 10.8768 16.1392 10.6481C16.1392 10.4111 16.1129 10.1829 16.0866 9.96346L16.0251 9.47196L17.8068 8.08522L16.5868 5.97878L14.4892 6.82136L14.0942 6.51417C13.7256 6.23331 13.3306 6.00511 12.9269 5.83835L12.4705 5.64526L12.1458 3.40717H9.72336L9.39862 5.64526L8.93345 5.82957C8.54727 5.99633 8.16109 6.21575 7.75735 6.52294L7.3624 6.81258L5.27351 5.97878L4.05353 8.07644L5.83523 9.46318L5.77379 9.95468C5.74746 10.1829 5.72113 10.4199 5.72113 10.6481C5.72113 10.8762 5.73868 11.1132 5.77379 11.3326L5.83523 11.8241L4.05353 13.2109L5.26474 15.3173L7.3624 14.4747L7.75735 14.7819C8.13476 15.0716 8.51216 15.291 8.92467 15.4577L9.38984 15.6508L9.72336 17.8889ZM14.0065 10.6481C14.0065 12.3446 12.6311 13.7199 10.9346 13.7199C9.23801 13.7199 7.86268 12.3446 7.86268 10.6481C7.86268 8.95149 9.23801 7.57616 10.9346 7.57616C12.6311 7.57616 14.0065 8.95149 14.0065 10.6481Z" fill="#49454F"/>
</g>
</svg>
