<svg width="18" height="18" viewBox="0 0 18 18" fill="none" xmlns="http://www.w3.org/2000/svg">
<g id="tool-01">
<path id="Icon" d="M11.7235 5.72353C11.4265 5.42652 11.278 5.27801 11.2224 5.10676C11.1734 4.95613 11.1734 4.79387 11.2224 4.64324C11.278 4.47199 11.4265 4.32348 11.7235 4.02647L13.8523 1.89769C13.2874 1.64222 12.6603 1.5 12 1.5C9.51471 1.5 7.49999 3.51472 7.49999 6C7.49999 6.36828 7.54423 6.72623 7.62768 7.06882C7.71705 7.43568 7.76174 7.61911 7.7538 7.735C7.7455 7.85632 7.72741 7.92087 7.67146 8.02884C7.61802 8.13197 7.51563 8.23436 7.31085 8.43914L2.62499 13.125C2.00367 13.7463 2.00367 14.7537 2.62499 15.375C3.24631 15.9963 4.25367 15.9963 4.87499 15.375L9.56085 10.6891C9.76563 10.4844 9.86802 10.382 9.97115 10.3285C10.0791 10.2726 10.1437 10.2545 10.265 10.2462C10.3809 10.2382 10.5643 10.2829 10.9312 10.3723C11.2738 10.4558 11.6317 10.5 12 10.5C14.4853 10.5 16.5 8.48528 16.5 6C16.5 5.33969 16.3578 4.71261 16.1023 4.14769L13.9735 6.27647C13.6765 6.57348 13.528 6.72199 13.3567 6.77763C13.2061 6.82658 13.0439 6.82658 12.8932 6.77763C12.722 6.72199 12.5735 6.57348 12.2765 6.27647L11.7235 5.72353Z" stroke="#E9CA91" stroke-width="2" stroke-linecap="round" stroke-linejoin="round"/>
</g>
</svg>
