<svg width="22" height="22" viewBox="0 0 22 22" fill="none" xmlns="http://www.w3.org/2000/svg">
<g id="Icons/account_circle_filled_24px">
<path id="icon" fill-rule="evenodd" clip-rule="evenodd" d="M10.5537 1.77686C5.70887 1.77686 1.77686 5.70887 1.77686 10.5537C1.77686 15.3985 5.70887 19.3305 10.5537 19.3305C15.3985 19.3305 19.3305 15.3985 19.3305 10.5537C19.3305 5.70887 15.3985 1.77686 10.5537 1.77686ZM16.1357 14.7929C14.8807 13.2657 11.8351 12.7479 10.5537 12.7479C9.27226 12.7479 6.22671 13.2657 4.97162 14.7929C4.07638 13.6168 3.53222 12.1511 3.53222 10.5537C3.53222 6.6831 6.6831 3.53222 10.5537 3.53222C14.4243 3.53222 17.5751 6.6831 17.5751 10.5537C17.5751 12.1511 17.031 13.6168 16.1357 14.7929ZM7.48179 8.35947C7.48179 6.65677 8.85098 5.28759 10.5537 5.28759C12.2564 5.28759 13.6256 6.65677 13.6256 8.35947C13.6256 10.0622 12.2564 11.4314 10.5537 11.4314C8.85098 11.4314 7.48179 10.0622 7.48179 8.35947Z" fill="#49454F"/>
</g>
</svg>
